<svg width="1200" height="1200" viewBox="0 0 1200 1200" fill="none" xmlns="http://www.w3.org/2000/svg">
    <defs>  
        <linearGradient id="grad1" x1="0%" y1="0%" x2="100%" y2="0%">
            <stop offset="0%" style="stop-color:#0ee951;stop-opacity:1" />
            <stop offset="100%" style="stop-color:#00dabf;stop-opacity:1" />
        </linearGradient>
    </defs>
    <path fill="url(#grad1)"
        d="M600 1200C268.629 1200 0 931.371 0 600V600C0 268.629 268.629 0 600 0V0C931.371 0 1200 268.629 1200 600V600C1200 931.371 931.371 1200 600 1200V1200ZM877 598.75C877 517.75 877 436.75 877 355.75C877.112 336.714 873.838 317.81 867.33 299.92C847.49 246.17 810.16 209.32 757.33 187.99C713.46 170.27 667.23 164.99 620.42 163.42C581.34 162.09 542.56 165.11 503.92 170.97C472.14 175.79 442 185 414 201C370.52 226 340.46 261.23 328.28 310.71C321.97 336.32 322.95 362.29 323.12 388.26C323.12 393.74 328.12 397.95 333.91 397.96C372.243 398.027 410.577 398.027 448.91 397.96C455.51 397.96 459.27 394.1 459.96 387.53C460.38 382.223 461.105 376.944 462.13 371.72C471.77 328.66 495.75 299.35 540.5 289.61C565.8 284.1 591.33 283.09 617.02 284.33C639.66 285.42 661.54 289.93 682.24 299.63C713.32 314.19 733 337.63 737.36 372.08C739 385.08 737.88 398.36 738.01 411.52C738.33 444.81 722.53 469.15 696.01 487.67C680.01 498.83 661.49 504.2 643.52 510.55C579.77 533.07 515.86 555 452 577C431.22 584.15 411.37 593.07 394.37 607.23C347.74 646.08 326.65 697.23 324.2 756.68C323.12 783.14 323.84 809.68 324.11 836.17C324.064 845.988 324.752 855.795 326.17 865.51C329.7 887.24 334.32 908.81 344.8 928.44C359.56 956.08 381.8 976.65 408.15 992.91C451.78 1019.79 500.15 1030.78 550.52 1034.86C587.238 1037.72 624.132 1037.49 660.81 1034.15C704.17 1030.35 745.03 1018.68 783.54 998.15C846.46 964.57 875.64 910.63 876.72 841.25C878 760.43 877 679.58 877 598.75Z"/>
    <path fill="url(#grad1)"
        d="M740.15 599.27V604.58C740.243 630.233 740.333 655.9 740.42 681.58C740.59 722.22 741.35 762.87 740.81 803.5C740.43 832.62 732.81 859.82 713.3 882.5C704.4 892.88 692.69 899.19 680.15 904.09C660.53 911.76 639.93 914.65 619.15 915.71C592.46 917.06 565.94 915.71 539.69 909.92C496.4 900.41 472.75 872.75 465.14 830.14C461.34 808.86 459.72 787.37 465.14 766.14C471.42 741.65 485.07 721.6 505.14 706.19C522.78 692.61 543.24 684.74 564.14 677.65C609.99 662.11 655.66 646.04 701.32 629.94C707.853 627.466 714.162 624.438 720.18 620.89C729.012 616.048 736.023 608.458 740.15 599.27V599.27Z"/>
</svg>