<svg version="1" xmlns="http://www.w3.org/2000/svg" viewBox="0 0 514.748 363.442"><path fill="#E86E00" d="M489.695 357.033H20.94a7.342 7.342 0 1 1 0-14.684h468.755a7.342 7.342 0 1 1 0 14.684z"/><path fill="#7A7574" d="M427.422 138.774l19.256-49.804a4.999 4.999 0 1 1 9.326 3.606l-19.256 49.804a4.999 4.999 0 1 1-9.326-3.606"/><path fill="#7A7574" d="M361.627 174.246l68.018-38.033a5 5 0 1 1 4.88 8.728l-68.018 38.033a5 5 0 1 1-4.88-8.728"/><path fill="#443A38" d="M306.886 49.608h18.923v90.969h-18.923V49.608"/><path fill="#443A38" d="M306.88 49.604v90.969h18.931V49.604H306.88"/><path fill="#635B59" d="M299.063 255.786l-56.322-56.322a5 5 0 0 1 0-7.071 5 5 0 0 1 7.071 0l56.322 56.322a5 5 0 0 1 0 7.071 5 5 0 0 1-7.071 0"/><path fill="#57797C" d="M202.69 153.493v84.87h158.041l13.51-15.81a9.727 9.727 0 0 0 1.68-2.811 9.66 9.66 0 0 0 .72-3.689v-62.561H202.69z"/><path fill="#0D5154" d="M140.52 153.493v62.561c0 1.27.24 2.53.721 3.689a9.651 9.651 0 0 0 1.67 2.811l13.51 15.81h158.05v-84.87H140.52z"/><path fill="#87A5AA" d="M202.69 134.884v84.859h173.23a9.66 9.66 0 0 0 .72-3.689v-81.17H202.69z"/><circle fill="#443A38" cx="432.085" cy="140.577" r="5.662"/><path fill="#1D6D75" d="M140.52 134.884v81.17c0 1.27.24 2.53.721 3.689H314.47v-84.859H140.52z"/><path fill="#635B59" d="M254.257 255.786l-56.321-56.322a5 5 0 0 1 0-7.071 5 5 0 0 1 7.071 0l56.321 56.322a5 5 0 0 1 0 7.071 5 5 0 0 1-7.071 0"/><path fill="#297C89" d="M129.082 134.88h258.224v11.394H129.082z"/><path fill="#9FBBC1" d="M303.366 134.88h84.707v11.394h-84.707z"/><path fill="#38302E" d="M306.88 61.027h18.931v9.996H306.88v-9.996"/><circle fill="#443A38" cx="201.47" cy="195.929" r="8.212"/><path fill="#635B59" d="M267.658 6.409h82.721V63.65h-82.721a6.314 6.314 0 0 1-6.313-6.316V12.722a6.313 6.313 0 0 1 6.313-6.313"/><path fill="#7A7574" d="M335.728 6.409h29.302a6.315 6.315 0 0 1 6.316 6.313v44.612a6.317 6.317 0 0 1-6.316 6.316h-29.302a6.315 6.315 0 0 1-6.316-6.316V12.722a6.313 6.313 0 0 1 6.316-6.313"/><path fill="#443A38" d="M336.688 35.029c0 7.561 6.13 13.688 13.691 13.688 7.561 0 13.688-6.128 13.688-13.688 0-7.561-6.128-13.691-13.688-13.691-7.561 0-13.691 6.13-13.691 13.691"/><path fill="#443A38" d="M336.693 35.029c0 7.566 6.123 13.691 13.689 13.691 3.876 0 7.373-1.606 9.862-4.195a13.52 13.52 0 0 0 3.155-5.276c.178-.52.316-1.063.417-1.619.165-.834.252-1.704.252-2.601 0-.983-.1-1.943-.301-2.865-1.125-5.266-5.266-9.409-10.518-10.521-.924-.2-1.884-.301-2.867-.301-.885 0-1.745.088-2.589.252h-.013a11.47 11.47 0 0 0-1.616.417 13.48 13.48 0 0 0-5.281 3.155 13.645 13.645 0 0 0-4.19 9.863"/><circle fill="#EA543B" cx="365.031" cy="12.761" r="3.415"/><path fill="#554B49" d="M350.382 21.343c.983 0 1.943.101 2.867.301l10.518 10.521c.201.921.301 1.881.301 2.865 0 .898-.088 1.768-.252 2.601l-16.023-16.036a13.512 13.512 0 0 1 2.589-.252m-4.218.669l17.235 17.238a13.54 13.54 0 0 1-3.155 5.276l-19.361-19.358a13.47 13.47 0 0 1 5.281-3.156"/><path fill="#635B59" d="M233.152 308.457l-34.604-53.49a5 5 0 0 1 8.396-5.432l34.604 53.49a5 5 0 0 1-8.396 5.432"/><path fill="#443A38" d="M398.076 262.729s4.821-.938 21.851-.938c17.028 0 21.851.938 21.851.938 18.753 0 34.009 19.295 34.009 43.012s-15.256 43.012-34.009 43.012c0 0-4.822.938-21.851.938s-21.851-.938-21.851-.938c-18.753 0-34.009-19.295-34.009-43.012s15.256-43.012 34.009-43.012z"/><path fill="#635B59" d="M398.076 348.753c18.753 0 34.009-19.295 34.009-43.012s-15.256-43.012-34.009-43.012-34.009 19.295-34.009 43.012 15.256 43.012 34.009 43.012z"/><ellipse fill="#443A38" cx="398.076" cy="305.741" rx="8.529" ry="11.372"/><path fill="#443A38" d="M259.471 262.729s4.821-.938 21.851-.938c17.028 0 21.851.938 21.851.938 18.753 0 34.009 19.295 34.009 43.012s-15.256 43.012-34.009 43.012c0 0-4.822.938-21.851.938s-21.851-.938-21.851-.938c-18.753 0-34.009-19.295-34.009-43.012s15.256-43.012 34.009-43.012z"/><path fill="#635B59" d="M259.471 348.753c18.753 0 34.009-19.295 34.009-43.012s-15.256-43.012-34.009-43.012-34.009 19.295-34.009 43.012 15.256 43.012 34.009 43.012z"/><ellipse fill="#443A38" cx="259.471" cy="305.741" rx="8.529" ry="11.372"/><path fill="#443A38" d="M144.991 262.729s4.822-.938 21.851-.938 21.851.938 21.851.938c18.753 0 34.009 19.295 34.009 43.012s-15.256 43.012-34.009 43.012c0 0-4.821.938-21.851.938-17.028 0-21.851-.938-21.851-.938-18.753 0-34.009-19.295-34.009-43.012s15.256-43.012 34.009-43.012z"/><path fill="#635B59" d="M144.991 348.753c18.753 0 34.009-19.295 34.009-43.012s-15.256-43.012-34.009-43.012-34.009 19.295-34.009 43.012 15.256 43.012 34.009 43.012z"/><ellipse fill="#443A38" cx="144.991" cy="305.741" rx="8.529" ry="11.372"/><path fill="#7A7574" d="M393.076 305.742V257.25h-37.213a5 5 0 0 1 0-10h47.213v58.491a5 5 0 0 1-10 .001z"/><path fill="#635B59" d="M350.863 305.742V257.25H125.341v48.491a5 5 0 1 1-10 0v-58.49h245.522v58.491a5 5 0 1 1-10 0z"/><path fill="#443A38" d="M291.801 262.729s4.822-.938 21.851-.938 21.851.938 21.851.938c18.753 0 34.009 19.295 34.009 43.012s-15.256 43.012-34.009 43.012c0 0-4.821.938-21.851.938-17.028 0-21.851-.938-21.851-.938-18.753 0-34.009-19.295-34.009-43.012s15.256-43.012 34.009-43.012z"/><path fill="#7A7574" d="M291.801 348.753c18.753 0 34.009-19.295 34.009-43.012s-15.256-43.012-34.009-43.012-34.009 19.295-34.009 43.012 15.256 43.012 34.009 43.012z"/><ellipse fill="#443A38" cx="291.801" cy="305.741" rx="27.009" ry="36.012"/><path fill="#635B59" d="M274.437 305.737c0 18.72 11.17 33.96 25.101 34.51 11.149-4.43 19.27-18.21 19.27-34.51 0-16.29-8.12-30.07-19.27-34.5-13.931.55-25.101 15.781-25.101 34.5z"/><ellipse fill="#443A38" cx="300.33" cy="305.741" rx="8.529" ry="11.372"/><path fill="#443A38" d="M175.082 262.729s4.822-.938 21.851-.938 21.851.938 21.851.938c18.753 0 34.009 19.295 34.009 43.012s-15.256 43.012-34.009 43.012c0 0-4.821.938-21.851.938-17.028 0-21.851-.938-21.851-.938-18.753 0-34.009-19.295-34.009-43.012s15.256-43.012 34.009-43.012z"/><path fill="#7A7574" d="M175.082 348.753c18.753 0 34.009-19.295 34.009-43.012s-15.256-43.012-34.009-43.012-34.009 19.295-34.009 43.012 15.256 43.012 34.009 43.012z"/><ellipse fill="#443A38" cx="175.082" cy="305.741" rx="27.009" ry="36.012"/><path fill="#635B59" d="M157.718 305.737c0 18.72 11.17 33.96 25.101 34.51 11.149-4.43 19.27-18.21 19.27-34.51 0-16.29-8.12-30.07-19.27-34.5-13.931.55-25.101 15.781-25.101 34.5z"/><ellipse fill="#443A38" cx="183.611" cy="305.741" rx="8.529" ry="11.372"/><path fill="#443A38" d="M58.363 262.729s4.822-.938 21.851-.938 21.851.938 21.851.938c18.753 0 34.009 19.295 34.009 43.012s-15.256 43.012-34.009 43.012c0 0-4.821.938-21.851.938-17.028 0-21.851-.938-21.851-.938-18.753 0-34.009-19.295-34.009-43.012s15.256-43.012 34.009-43.012z"/><path fill="#7A7574" d="M58.363 348.753c18.753 0 34.009-19.295 34.009-43.012s-15.256-43.012-34.009-43.012-34.009 19.295-34.009 43.012 15.256 43.012 34.009 43.012z"/><ellipse fill="#443A38" cx="58.363" cy="305.741" rx="27.009" ry="36.012"/><path fill="#635B59" d="M41 305.737c0 18.72 11.17 33.96 25.101 34.51 11.149-4.43 19.27-18.21 19.27-34.51 0-16.29-8.12-30.07-19.27-34.5-13.931.55-25.101 15.781-25.101 34.5z"/><ellipse fill="#443A38" cx="66.892" cy="305.741" rx="8.529" ry="11.372"/><circle fill="#443A38" cx="120.341" cy="252.251" r="8.212"/><path fill="#443A38" d="M437.027 56.714l29.523 7.91-9.977 37.234-29.523-7.91a7.96 7.96 0 0 1-5.627-9.747l5.857-21.86a7.96 7.96 0 0 1 9.747-5.627z"/><path fill="#635B59" d="M456.87 62.03l19.361 5.188a7.96 7.96 0 0 1 5.628 9.747L476 98.826a7.959 7.959 0 0 1-9.747 5.627l-19.361-5.188a7.958 7.958 0 0 1-5.627-9.746l5.857-21.86a7.958 7.958 0 0 1 9.748-5.629z"/><ellipse transform="rotate(-75.001 461.576 83.244)" fill="#6B6564" cx="461.561" cy="83.241" rx="10.105" ry="10.105"/><path fill="#4C4543" d="M461.861 91.643l15.455 4.142a1.592 1.592 0 0 0 1.949-1.125l3.337-12.455a1.59 1.59 0 0 0-1.125-1.949l-15.455-4.142a8.038 8.038 0 1 0-4.161 15.529z"/><path fill="#544D4C" d="M472.189 94.412l11.791 3.158a1.592 1.592 0 0 0 1.949-1.125l3.337-12.455a1.593 1.593 0 0 0-1.125-1.949l-11.791-3.158a1.59 1.59 0 0 0-1.949 1.125l-3.337 12.455a1.591 1.591 0 0 0 1.125 1.949z"/><path fill="#635B59" d="M479.058 93.188l15.407 4.127a5.076 5.076 0 1 0 2.626-9.807l-15.405-4.128a5.077 5.077 0 1 0-2.628 9.808z"/><path fill="#443A38" d="M495.723 97.652a3.774 3.774 0 0 0 4.621-2.669l.676-2.518a3.775 3.775 0 0 0-7.292-1.954l-.675 2.52a3.775 3.775 0 0 0 2.67 4.621z"/><circle fill="#443A38" cx="202.746" cy="252.251" r="8.212"/><circle fill="#443A38" cx="257.792" cy="252.251" r="8.212"/><circle fill="#443A38" cx="355.863" cy="252.251" r="8.212"/><circle fill="#443A38" cx="398.076" cy="252.251" r="8.212"/><path d="M193.258 162.045h105.379v8.25H193.258zm49.092 13.25h56.286v8.25H242.35zm0 13.25h56.286v8.25H242.35z" fill="#0D5154"/><path fill="#57797C" d="M345.555 162.045c4.571 0 7.922.896 10.053 2.689 2.13 1.792 3.195 4.04 3.195 6.741v23.067c0 .935-.169 1.962-.507 3.078-.339 1.118-1.001 2.143-1.987 3.078-.988.935-2.338 1.714-4.052 2.338-1.714.623-3.949.935-6.702.935-2.754 0-4.987-.312-6.702-.935-1.714-.623-3.066-1.403-4.052-2.338-.988-.935-1.65-1.96-1.987-3.078-.339-1.117-.507-2.143-.507-3.078v-3.663c0-1.974.507-3.766 1.52-5.377 1.013-1.61 2.455-2.753 4.325-3.429a268.84 268.84 0 0 0 3.195-1.091c1.195-.415 2.35-.818 3.468-1.208 1.117-.39 2.091-.74 2.922-1.052.83-.312 1.35-.493 1.559-.545.207-.104.48-.246.818-.429.337-.181.662-.454.974-.818.312-.363.584-.779.818-1.247.234-.468.351-1.013.351-1.636v-1.481c0-.519-.105-1.052-.312-1.598-.208-.545-.572-1.052-1.091-1.52-.52-.468-1.208-.844-2.065-1.13-.857-.285-1.936-.429-3.234-.429-2.598 0-4.352.533-5.26 1.598-.813.952-1.262 2.081-1.348 3.385a.504.504 0 0 1-.502.472h-5.632a.505.505 0 0 1-.505-.505v-1.365a9.14 9.14 0 0 1 .74-3.663c.493-1.142 1.286-2.143 2.377-3 1.091-.857 2.467-1.532 4.13-2.026 1.662-.492 3.663-.74 6-.74zm6.702 20.651c-.105.52-.364.91-.779 1.169a4.593 4.593 0 0 1-1.169.545c-.779.261-1.624.559-2.533.896-.91.339-1.753.637-2.533.896-.935.312-1.819.623-2.65.935a7.214 7.214 0 0 0-1.792 1.091c-.468.416-.896.949-1.286 1.598-.39.65-.584 1.468-.584 2.455 0 1.975.468 3.442 1.403 4.403.935.962 2.675 1.442 5.221 1.442 2.597 0 4.364-.507 5.299-1.52.935-1.013 1.403-2.455 1.403-4.325v-9.585z"/></svg>