<svg version="1" xmlns="http://www.w3.org/2000/svg" viewBox="0 0 514.748 380.4"><path fill="#E86E00" d="M488.139 373.991H19.383a7.342 7.342 0 1 1 0-14.684h468.755a7.342 7.342 0 0 1 7.342 7.342 7.342 7.342 0 0 1-7.341 7.342z"/><path fill="#7A7574" d="M425.864 138.527l19.257-49.803a4.999 4.999 0 1 1 9.326 3.606l-19.257 49.803a4.999 4.999 0 1 1-9.326-3.606"/><path fill="#7A7574" d="M360.07 174l68.018-38.034a5 5 0 1 1 4.88 8.728l-68.018 38.034a5 5 0 1 1-4.88-8.728"/><path fill="#443A38" d="M305.328 49.36h18.926v90.97h-18.926V49.36"/><path fill="#443A38" d="M305.324 49.358v90.97h18.93v-90.97h-18.93"/><path fill="#635B59" d="M297.506 255.539l-56.321-56.321a5 5 0 0 1 0-7.071 5 5 0 0 1 7.071 0l56.321 56.321a5 5 0 0 1 0 7.071 5 5 0 0 1-7.071 0"/><path fill="#57797C" d="M201.134 153.247v84.87h158.04l13.51-15.811a9.703 9.703 0 0 0 1.681-2.81c.479-1.16.72-2.42.72-3.69v-62.56H201.134z"/><path fill="#0D5154" d="M138.964 153.247v62.56c0 1.271.24 2.53.72 3.69a9.69 9.69 0 0 0 1.67 2.81l13.511 15.811h158.05v-84.87H138.964z"/><path fill="#87A5AA" d="M201.134 134.637v84.86h173.23c.479-1.16.72-2.42.72-3.69v-81.17h-173.95z"/><circle fill="#443A38" cx="430.527" cy="140.33" r="5.662"/><path fill="#1D6D75" d="M138.964 134.637v81.17c0 1.271.24 2.53.72 3.69h173.23v-84.86h-173.95z"/><path fill="#635B59" d="M252.7 255.539l-56.322-56.321a5 5 0 0 1 0-7.071 5 5 0 0 1 7.071 0l56.322 56.321a5 5 0 0 1 0 7.071 5 5 0 0 1-7.071 0"/><path fill="#297C89" d="M127.526 134.633h258.223v11.395H127.526z"/><path fill="#9FBBC1" d="M301.81 134.633h84.707v11.395H301.81z"/><path fill="#38302E" d="M305.324 60.778h18.93v9.999h-18.93v-9.999"/><circle fill="#443A38" cx="199.913" cy="195.683" r="8.212"/><path fill="#635B59" d="M266.104 6.558h82.72v57.239h-82.72a6.312 6.312 0 0 1-6.313-6.313V12.871a6.312 6.312 0 0 1 6.313-6.313"/><path fill="#7A7574" d="M334.173 6.558h29.303a6.313 6.313 0 0 1 6.316 6.313v44.613a6.313 6.313 0 0 1-6.316 6.313h-29.303a6.315 6.315 0 0 1-6.316-6.313V12.871a6.314 6.314 0 0 1 6.316-6.313"/><path fill="#443A38" d="M335.135 35.179c0 7.561 6.13 13.692 13.688 13.692 7.561 0 13.692-6.13 13.692-13.692s-6.13-13.692-13.692-13.692c-7.558 0-13.688 6.13-13.688 13.692"/><path fill="#443A38" d="M335.14 35.181c0 7.564 6.123 13.689 13.687 13.689 3.878 0 7.376-1.604 9.862-4.195a13.507 13.507 0 0 0 3.158-5.276c.178-.52.316-1.063.417-1.619a13.37 13.37 0 0 0 .252-2.6c0-.985-.1-1.945-.303-2.867-1.122-5.266-5.266-9.409-10.519-10.519a13.312 13.312 0 0 0-2.867-.303c-.883 0-1.742.087-2.587.252h-.015c-.554.1-1.083.239-1.614.417a13.467 13.467 0 0 0-5.281 3.155 13.635 13.635 0 0 0-4.19 9.866"/><circle fill="#EA543B" cx="363.477" cy="12.91" r="3.415"/><path fill="#554B49" d="M348.827 21.493c.985 0 1.945.1 2.867.303l10.519 10.519c.203.921.303 1.881.303 2.867 0 .896-.088 1.768-.252 2.6L346.24 21.745a13.436 13.436 0 0 1 2.587-.252m-4.216.669L361.846 39.4a13.495 13.495 0 0 1-3.158 5.276L339.33 25.317a13.456 13.456 0 0 1 5.281-3.155"/><path fill="#635B59" d="M231.302 324.898l-34.604-70.696a5 5 0 1 1 8.982-4.396l34.604 70.696a5 5 0 1 1-8.982 4.396"/><path fill="#443A38" d="M396.519 279.688s4.822-.938 21.851-.938 21.851.938 21.851.938c18.753 0 34.009 19.295 34.009 43.012s-15.256 43.012-34.009 43.012c0 0-4.821.938-21.851.938-17.028 0-21.851-.938-21.851-.938-18.753 0-34.009-19.295-34.009-43.012s15.256-43.012 34.009-43.012z"/><path fill="#635B59" d="M396.519 365.711c18.753 0 34.009-19.295 34.009-43.012s-15.256-43.012-34.009-43.012-34.009 19.295-34.009 43.012 15.256 43.012 34.009 43.012z"/><ellipse fill="#443A38" cx="396.519" cy="322.699" rx="8.529" ry="11.372"/><path fill="#443A38" d="M257.914 279.688s4.822-.938 21.851-.938 21.851.938 21.851.938c18.753 0 34.009 19.295 34.009 43.012s-15.256 43.012-34.009 43.012c0 0-4.821.938-21.851.938-17.028 0-21.851-.938-21.851-.938-18.753 0-34.009-19.295-34.009-43.012s15.256-43.012 34.009-43.012z"/><path fill="#635B59" d="M257.914 365.711c18.753 0 34.009-19.295 34.009-43.012s-15.256-43.012-34.009-43.012-34.009 19.295-34.009 43.012 15.256 43.012 34.009 43.012z"/><ellipse fill="#443A38" cx="257.914" cy="322.699" rx="8.529" ry="11.372"/><path fill="#443A38" d="M143.435 279.688s4.821-.938 21.851-.938c17.028 0 21.851.938 21.851.938 18.753 0 34.009 19.295 34.009 43.012s-15.256 43.012-34.009 43.012c0 0-4.822.938-21.851.938s-21.851-.938-21.851-.938c-18.753 0-34.009-19.295-34.009-43.012s15.256-43.012 34.009-43.012z"/><path fill="#635B59" d="M143.435 365.711c18.753 0 34.009-19.295 34.009-43.012s-15.256-43.012-34.009-43.012-34.009 19.295-34.009 43.012 15.256 43.012 34.009 43.012z"/><ellipse fill="#443A38" cx="143.435" cy="322.699" rx="8.529" ry="11.372"/><path fill="#7A7574" d="M391.519 322.699v-65.696h-37.212a5 5 0 0 1 0-10h47.212v75.695a5 5 0 0 1-10 .001z"/><path fill="#635B59" d="M349.307 305.496v-48.493H123.784V322.7a5 5 0 1 1-10 0v-75.696h245.522v58.492a5 5 0 1 1-9.999 0z"/><path fill="#443A38" d="M290.244 279.688s4.821-.938 21.851-.938c17.028 0 21.851.938 21.851.938 18.753 0 34.009 19.295 34.009 43.012s-15.256 43.012-34.009 43.012c0 0-4.822.938-21.851.938s-21.851-.938-21.851-.938c-18.753 0-34.009-19.295-34.009-43.012s15.256-43.012 34.009-43.012z"/><path fill="#7A7574" d="M290.244 365.711c18.753 0 34.009-19.295 34.009-43.012s-15.256-43.012-34.009-43.012-34.009 19.295-34.009 43.012 15.256 43.012 34.009 43.012z"/><ellipse fill="#443A38" cx="290.244" cy="322.7" rx="27.008" ry="36.012"/><path fill="#635B59" d="M272.881 322.695c0 18.72 11.17 33.96 25.1 34.51 11.15-4.43 19.271-18.21 19.271-34.51 0-16.29-8.12-30.07-19.271-34.5-13.93.55-25.1 15.781-25.1 34.5z"/><ellipse fill="#443A38" cx="298.773" cy="322.699" rx="8.529" ry="11.372"/><path fill="#443A38" d="M173.525 279.688s4.821-.938 21.851-.938c17.028 0 21.851.938 21.851.938 18.753 0 34.009 19.295 34.009 43.012s-15.256 43.012-34.009 43.012c0 0-4.822.938-21.851.938s-21.851-.938-21.851-.938c-18.753 0-34.009-19.295-34.009-43.012s15.257-43.012 34.009-43.012z"/><path fill="#7A7574" d="M173.525 365.711c18.753 0 34.009-19.295 34.009-43.012s-15.256-43.012-34.009-43.012-34.009 19.295-34.009 43.012 15.257 43.012 34.009 43.012z"/><ellipse fill="#443A38" cx="173.525" cy="322.7" rx="27.008" ry="36.012"/><path fill="#635B59" d="M156.162 322.695c0 18.72 11.17 33.96 25.1 34.51 11.15-4.43 19.271-18.21 19.271-34.51 0-16.29-8.12-30.07-19.271-34.5-13.93.55-25.1 15.781-25.1 34.5z"/><ellipse fill="#443A38" cx="182.054" cy="322.699" rx="8.529" ry="11.372"/><path fill="#443A38" d="M56.807 279.688s4.821-.938 21.851-.938c17.028 0 21.851.938 21.851.938 18.753 0 34.009 19.295 34.009 43.012s-15.256 43.012-34.009 43.012c0 0-4.822.938-21.851.938s-21.851-.938-21.851-.938c-18.753 0-34.009-19.295-34.009-43.012s15.256-43.012 34.009-43.012z"/><path fill="#7A7574" d="M56.807 365.711c18.753 0 34.009-19.295 34.009-43.012s-15.256-43.012-34.009-43.012-34.009 19.295-34.009 43.012 15.256 43.012 34.009 43.012z"/><ellipse fill="#443A38" cx="56.806" cy="322.7" rx="27.008" ry="36.012"/><path fill="#635B59" d="M39.443 322.695c0 18.72 11.17 33.96 25.1 34.51 11.15-4.43 19.271-18.21 19.271-34.51 0-16.29-8.12-30.07-19.271-34.5-13.93.55-25.1 15.781-25.1 34.5z"/><ellipse fill="#443A38" cx="65.335" cy="322.699" rx="8.529" ry="11.372"/><circle fill="#443A38" cx="118.784" cy="252.004" r="8.212"/><path fill="#443A38" d="M438.584 49.53l29.523 7.912-9.976 37.234-29.523-7.912a7.957 7.957 0 0 1-5.628-9.746l5.858-21.86a7.957 7.957 0 0 1 9.746-5.628z"/><path fill="#635B59" d="M458.426 54.847l19.362 5.188a7.958 7.958 0 0 1 5.627 9.746l-5.857 21.86a7.96 7.96 0 0 1-9.747 5.628l-19.362-5.188a7.959 7.959 0 0 1-5.627-9.747l5.857-21.86a7.959 7.959 0 0 1 9.747-5.627z"/><ellipse transform="rotate(-75.001 463.14 76.056)" fill="#6B6564" cx="463.119" cy="76.058" rx="10.106" ry="10.105"/><path fill="#4C4543" d="M463.419 84.46l15.455 4.141a1.592 1.592 0 0 0 1.949-1.125l3.337-12.455a1.593 1.593 0 0 0-1.125-1.949l-15.455-4.141a8.038 8.038 0 0 0-9.845 5.684 8.036 8.036 0 0 0 5.684 9.845z"/><path fill="#544D4C" d="M473.746 87.227l11.791 3.16a1.592 1.592 0 0 0 1.949-1.125l3.337-12.455a1.591 1.591 0 0 0-1.125-1.949l-11.791-3.16a1.593 1.593 0 0 0-1.949 1.125l-3.337 12.455a1.592 1.592 0 0 0 1.125 1.949z"/><path fill="#635B59" d="M480.616 86.004l15.405 4.128a5.077 5.077 0 1 0 2.628-9.808l-15.405-4.128a5.077 5.077 0 1 0-2.628 9.808z"/><path fill="#443A38" d="M497.282 90.469a3.774 3.774 0 0 0 4.621-2.669l.675-2.518a3.774 3.774 0 1 0-7.29-1.954l-.675 2.518a3.773 3.773 0 0 0 2.669 4.623z"/><circle fill="#443A38" cx="201.19" cy="252.004" r="8.212"/><circle fill="#443A38" cx="256.235" cy="252.004" r="8.212"/><circle fill="#443A38" cx="354.307" cy="252.004" r="8.212"/><circle fill="#443A38" cx="396.519" cy="252.004" r="8.212"/><path d="M191.701 161.8H297.08v8.25H191.701zm49.093 13.25h56.286v8.25h-56.286zm0 13.25h56.286v8.25h-56.286z" fill="#0D5154"/><path fill="#57797C" d="M343.999 161.8c4.571 0 7.922.896 10.053 2.689 2.13 1.792 3.195 4.04 3.195 6.741v23.067c0 .935-.169 1.962-.507 3.078-.339 1.118-1.001 2.143-1.987 3.078-.988.935-2.338 1.714-4.052 2.338-1.714.623-3.949.935-6.702.935-2.754 0-4.987-.312-6.702-.935-1.714-.623-3.066-1.403-4.052-2.338-.988-.935-1.65-1.96-1.987-3.078-.339-1.117-.507-2.143-.507-3.078v-3.663c0-1.974.507-3.766 1.52-5.377 1.013-1.61 2.455-2.753 4.325-3.429a268.84 268.84 0 0 0 3.195-1.091c1.195-.415 2.35-.818 3.468-1.208 1.117-.39 2.091-.74 2.922-1.052.831-.312 1.35-.493 1.559-.545.207-.104.48-.246.818-.429.337-.181.662-.454.974-.818.312-.363.584-.779.818-1.247.234-.468.351-1.013.351-1.637v-1.481c0-.519-.105-1.052-.312-1.598-.208-.545-.572-1.052-1.091-1.52-.52-.468-1.208-.844-2.065-1.13-.857-.285-1.936-.429-3.234-.429-2.598 0-4.352.533-5.26 1.598-.813.952-1.262 2.081-1.348 3.385a.504.504 0 0 1-.502.472h-5.632a.505.505 0 0 1-.505-.505v-1.365a9.14 9.14 0 0 1 .74-3.663c.493-1.142 1.286-2.143 2.377-3 1.091-.857 2.467-1.532 4.13-2.026 1.662-.492 3.662-.739 6-.739zm6.702 20.651c-.105.52-.364.91-.779 1.169a4.608 4.608 0 0 1-1.169.545c-.779.261-1.624.559-2.533.896-.91.339-1.753.637-2.533.896-.935.312-1.819.623-2.65.935a7.232 7.232 0 0 0-1.792 1.091c-.468.416-.896.949-1.286 1.598-.39.65-.584 1.468-.584 2.455 0 1.975.468 3.442 1.403 4.403.935.962 2.675 1.442 5.221 1.442 2.597 0 4.364-.507 5.299-1.52.935-1.013 1.403-2.455 1.403-4.325v-9.585z"/></svg>